<svg xmlns="http://www.w3.org/2000/svg" viewBox="0 0 110 70">
<style type="text/css">
	.st2{fill:#FFC42D;}
	.st3{fill:#EE3E55;}
	.st4{fill:#1DCAD3;}
</style>
<g>
	<path class="st2" d="M84.8,51.9c-1.3,0-2.6-0.8-3.2-2c-0.8-1.8,0-3.8,1.7-4.6l16.9-7.7l-13.8-13c-1.4-1.3-1.5-3.5-0.1-4.9
		c1.3-1.4,3.5-1.5,4.9-0.1L108.9,36c0.8,0.8,1.2,2,1.1,3.1c-0.2,1.1-0.9,2.1-2,2.6l-21.7,9.9C85.8,51.8,85.3,51.9,84.8,51.9"/>
	<path class="st2" d="M61,51.9c-0.9,0-1.9-0.4-2.5-1.1c-1.3-1.4-1.3-3.6,0.1-4.9l28-26.4c1.4-1.3,3.6-1.3,4.9,0.1
		c1.3,1.4,1.3,3.6-0.1,4.9L63.4,51C62.7,51.6,61.8,51.9,61,51.9"/>
	<path class="st3" d="M3.5,70c-0.5,0-0.9-0.1-1.4-0.3C0.8,69.2,0,67.9,0,66.5V6.2c0-1.9,1.6-3.5,3.5-3.5S7,4.3,7,6.2v52.2
		l13.3-12.5c1.4-1.3,3.6-1.3,4.9,0.1s1.3,3.6-0.1,4.9L5.9,69.1C5.2,69.7,4.4,70,3.5,70"/>
	<path class="st4" d="M22.6,51.9c-0.9,0-1.7-0.3-2.4-1l-5.9-5.5c-1.4-1.3-1.5-3.5-0.1-4.9c1.3-1.4,3.5-1.5,4.9-0.1l5.9,5.5
		c1.4,1.3,1.5,3.5,0.1,4.9C24.5,51.6,23.6,51.9,22.6,51.9"/>
	<path class="st4" d="M80.1,70c-0.9,0-1.7-0.3-2.4-1L58.6,51c-1.4-1.3-1.5-3.5-0.1-4.9c1.3-1.4,3.5-1.5,4.9-0.1l19.1,18
		c1.4,1.3,1.5,3.5,0.1,4.9C81.9,69.6,81,70,80.1,70"/>
	<path class="st2" d="M103.9,70c-0.9,0-1.7-0.3-2.4-1L82.4,51c-1.4-1.3-1.4-3.6-0.1-5s3.5-1.5,4.9-0.1l19.1,18
		c1.4,1.3,1.5,3.5,0.1,4.9C105.8,69.6,104.8,70,103.9,70"/>
	<path class="st4" d="M41.8,70c-0.9,0-1.7-0.3-2.4-1L20.3,51c-0.7-0.7-1.1-1.6-1.1-2.5c0-1,0.4-1.9,1.1-2.5l19.2-18.1
		c1.3-1.3,3.5-1.3,4.8,0L63.5,46c0.7,0.7,1.1,1.6,1.1,2.5c0,1-0.4,1.9-1.1,2.5L44.2,69.1C43.5,69.7,42.7,70,41.8,70 M27.7,48.4
		l14.1,13.3l14.1-13.3L41.8,35.2L27.7,48.4z"/>
</g>
</svg>
