<?xml version="1.0" encoding="utf-8"?>
<!-- Generator: Adobe Illustrator 22.1.0, SVG Export Plug-In . SVG Version: 6.00 Build 0)  -->
<svg version="1.0" id="Layer_1" xmlns="http://www.w3.org/2000/svg" xmlns:xlink="http://www.w3.org/1999/xlink" x="0px" y="0px"
	 viewBox="0 0 110 99.8" style="enable-background:new 0 0 110 99.8;" xml:space="preserve">
<style type="text/css">
	.st0{opacity:0.94;}
	.st1{fill:#5E5F5F;}
	.st2{fill:#FFC42D;}
	.st3{fill:#EE3E55;}
	.st4{fill:#1DCAD3;}
	.st5{opacity:0.3;}
	.st6{fill:#909294;}
</style>
<g>
	<g>
		<g class="st0">
			<g>
				<polygon class="st1" points="0.5,89.3 0.5,93.9 3.5,93.9 3.5,94.2 0.1,94.2 0.1,89.3 				"/>
				<path class="st1" d="M5.5,92.5c0-1,0.8-1.8,1.9-1.8c1,0,2,0.6,1.8,1.9H5.9c0.1,0.8,0.7,1.3,1.5,1.3c0.5,0,1.1-0.2,1.3-0.5
					L9,93.6c-0.4,0.4-1,0.7-1.6,0.7C6.3,94.3,5.5,93.6,5.5,92.5 M8.9,92.4c0-0.8-0.6-1.3-1.5-1.3c-0.8,0-1.4,0.5-1.5,1.3H8.9z"/>
				<path class="st1" d="M15.2,90.8v3.4h-0.4v-0.7c-0.4,0.5-0.9,0.8-1.5,0.8c-1,0-1.9-0.7-1.9-1.8c0-1.1,0.8-1.8,1.9-1.8
					c0.6,0,1.2,0.3,1.5,0.8v-0.8L15.2,90.8L15.2,90.8z M11.8,92.5c0,0.9,0.7,1.4,1.5,1.4c2.1,0,2.1-2.9,0-2.9
					C12.5,91.1,11.8,91.6,11.8,92.5"/>
				<path class="st1" d="M21.3,89.3v4.9h-0.4v-0.8c-0.3,0.5-0.9,0.8-1.5,0.8c-1,0-1.9-0.6-1.9-1.8c0-1.1,0.8-1.8,1.9-1.8
					c0.6,0,1.2,0.3,1.5,0.8v-2.2L21.3,89.3L21.3,89.3z M17.9,92.5c0,1,0.7,1.4,1.5,1.4c0.9,0,1.5-0.6,1.5-1.5S20.2,91,19.4,91
					S17.9,91.5,17.9,92.5"/>
				<path class="st1" d="M23.7,92.5c0-1,0.8-1.8,1.9-1.8c1,0,2,0.6,1.8,1.9h-3.3c0.1,0.8,0.7,1.3,1.5,1.3c0.5,0,1.1-0.2,1.3-0.5
					l0.3,0.2c-0.4,0.4-1,0.7-1.6,0.7C24.6,94.3,23.7,93.6,23.7,92.5 M27.1,92.4c0-0.8-0.6-1.3-1.5-1.3c-0.8,0-1.4,0.5-1.5,1.3H27.1z
					"/>
				<path class="st1" d="M30.2,90.8v0.6c0.2-0.5,0.8-0.6,1.2-0.6c0.3,0,0.5,0.1,0.8,0.2L32,91.3c-0.2-0.1-0.4-0.2-0.6-0.2
					c-0.7,0-1.2,0.5-1.2,1.2v2h-0.4v-3.4L30.2,90.8L30.2,90.8z"/>
				<path class="st1" d="M36.9,91.4c-0.4-0.3-0.7-0.4-1.2-0.4c-0.6,0-1.1,0.2-1.1,0.6c0,0.5,0.7,0.5,1.1,0.6c0.7,0.1,1.6,0.2,1.5,1
					c0,0.8-0.9,1-1.5,1c-0.7,0-1.3-0.2-1.6-0.7l0.3-0.2c0.3,0.4,0.9,0.6,1.4,0.6c0.4,0,1.1-0.1,1.2-0.7c0-0.5-0.6-0.6-1.2-0.7
					c-0.7-0.1-1.4-0.2-1.4-0.9c0-0.7,0.7-1,1.5-1c0.5,0,1,0.1,1.4,0.5L36.9,91.4z"/>
				<path class="st1" d="M48.3,91.8c0,1.3-0.9,2.5-2.6,2.5c-1.8,0-2.6-1.2-2.6-2.5s0.9-2.5,2.6-2.5S48.3,90.5,48.3,91.8 M43.4,91.8
					c0,1.1,0.8,2.2,2.3,2.2s2.3-1.1,2.3-2.2s-0.8-2.2-2.3-2.2C44.1,89.6,43.4,90.6,43.4,91.8"/>
				<path class="st1" d="M51,94.2v-3.1h-0.8v-0.3H51v-0.3c0-0.7,0.3-1.2,1.1-1.2c0.3,0,0.5,0.1,0.7,0.2l-0.2,0.3
					c-0.2-0.1-0.3-0.2-0.6-0.2c-0.5,0-0.7,0.3-0.7,0.9v0.3h1.2v0.3h-1.2v3.1C51.3,94.2,51,94.2,51,94.2z"/>
				<path class="st1" d="M62.8,94.2h-0.5l-1.8-1.8H59v1.8h-0.4v-4.9h2.3c1.1,0,1.7,0.8,1.7,1.5c0,0.8-0.6,1.5-1.7,1.5L62.8,94.2z
					 M59,92h1.9c0.9,0,1.3-0.5,1.3-1.2c0-0.6-0.4-1.2-1.3-1.2H59V92z"/>
				<path class="st1" d="M64.7,92.5c0-1,0.8-1.8,1.9-1.8c1,0,2,0.6,1.8,1.9h-3.3c0.1,0.8,0.7,1.3,1.5,1.3c0.5,0,1.1-0.2,1.3-0.5
					l0.3,0.2c-0.4,0.4-1,0.7-1.6,0.7C65.6,94.3,64.7,93.6,64.7,92.5 M68.1,92.4c0-0.8-0.6-1.3-1.5-1.3c-0.8,0-1.4,0.5-1.5,1.3H68.1z
					"/>
				<path class="st1" d="M73.4,91.4C73,91.1,72.7,91,72.2,91c-0.6,0-1.1,0.2-1.1,0.6c0,0.5,0.7,0.5,1.1,0.6c0.7,0.1,1.6,0.2,1.5,1
					c0,0.8-0.9,1-1.5,1c-0.7,0-1.3-0.2-1.6-0.7l0.3-0.2c0.3,0.4,0.9,0.6,1.4,0.6s1.1-0.1,1.2-0.7c0-0.5-0.6-0.6-1.2-0.7
					c-0.7-0.1-1.4-0.2-1.4-0.9c0-0.7,0.7-1,1.5-1c0.5,0,1,0.1,1.4,0.5L73.4,91.4z"/>
				<path class="st1" d="M76,92.5c0-1.1,0.8-1.8,1.9-1.8c1,0,1.9,0.7,1.9,1.8s-0.8,1.8-1.9,1.8S76,93.6,76,92.5 M79.4,92.5
					c0-0.9-0.7-1.5-1.5-1.5s-1.5,0.6-1.5,1.5s0.7,1.4,1.5,1.4C78.7,93.9,79.4,93.4,79.4,92.5"/>
				<rect x="82.1" y="89.3" class="st1" width="0.4" height="4.9"/>
				<path class="st1" d="M88,94.2v-0.6c-0.3,0.5-0.8,0.7-1.3,0.7c-1,0-1.7-0.6-1.7-1.5v-2h0.4v2c0,0.8,0.5,1.2,1.3,1.2
					s1.3-0.5,1.3-1.3v-1.9h0.4v3.5L88,94.2L88,94.2z"/>
				<path class="st1" d="M91.6,89.7v1h1.3V91h-1.3v2.1c0,0.5,0.1,0.8,0.7,0.8c0.2,0,0.4-0.1,0.6-0.1l0.1,0.3
					c-0.2,0.1-0.5,0.2-0.7,0.2c-0.8,0-1-0.4-1-1.1v-2.1h-0.8v-0.3h0.8v-1L91.6,89.7z"/>
				<path class="st1" d="M95.7,89.7c0,0.4-0.6,0.4-0.6,0C95.1,89.3,95.7,89.3,95.7,89.7 M95.2,94.2h0.4v-3.5h-0.4V94.2z"/>
				<path class="st1" d="M98.1,92.5c0-1.1,0.8-1.8,1.9-1.8c1,0,1.9,0.7,1.9,1.8s-0.8,1.8-1.9,1.8S98.1,93.6,98.1,92.5 M101.5,92.5
					c0-0.9-0.7-1.5-1.5-1.5s-1.5,0.6-1.5,1.5s0.7,1.4,1.5,1.4S101.5,93.4,101.5,92.5"/>
				<path class="st1" d="M104.6,90.8v0.6c0.3-0.5,0.8-0.7,1.3-0.7c1,0,1.7,0.6,1.7,1.5v2h-0.4v-2c0-0.8-0.5-1.2-1.3-1.2
					s-1.3,0.5-1.3,1.3v1.9h-0.4v-3.4C104.2,90.8,104.6,90.8,104.6,90.8z"/>
			</g>
		</g>
		<path class="st2" d="M84.8,64.9c-1.3,0-2.6-0.8-3.2-2c-0.8-1.8,0-3.8,1.7-4.6l16.9-7.7l-13.8-13c-1.4-1.3-1.5-3.5-0.1-4.9
			c1.3-1.4,3.5-1.5,4.9-0.1L108.9,49c0.8,0.8,1.2,2,1.1,3.1c-0.2,1.1-0.9,2.1-2,2.6l-21.7,9.9C85.8,64.8,85.3,64.9,84.8,64.9"/>
		<path class="st2" d="M61,64.9c-0.9,0-1.9-0.4-2.5-1.1c-1.3-1.4-1.3-3.6,0.1-4.9l28-26.4c1.4-1.3,3.6-1.3,4.9,0.1
			c1.3,1.4,1.3,3.6-0.1,4.9L63.4,64C62.7,64.6,61.8,64.9,61,64.9"/>
		<path class="st3" d="M3.5,83c-0.5,0-0.9-0.1-1.4-0.3C0.8,82.2,0,80.9,0,79.5V19.2c0-1.9,1.6-3.5,3.5-3.5S7,17.3,7,19.2v52.2
			l13.3-12.5c1.4-1.3,3.6-1.3,4.9,0.1s1.3,3.6-0.1,4.9L5.9,82.1C5.2,82.7,4.4,83,3.5,83"/>
		<path class="st4" d="M22.6,64.9c-0.9,0-1.7-0.3-2.4-1l-5.9-5.5c-1.4-1.3-1.5-3.5-0.1-4.9c1.3-1.4,3.5-1.5,4.9-0.1l5.9,5.5
			c1.4,1.3,1.5,3.5,0.1,4.9C24.5,64.6,23.6,64.9,22.6,64.9"/>
		<path class="st4" d="M80.1,83c-0.9,0-1.7-0.3-2.4-1L58.6,64c-1.4-1.3-1.5-3.5-0.1-4.9c1.3-1.4,3.5-1.5,4.9-0.1l19.1,18
			c1.4,1.3,1.5,3.5,0.1,4.9C81.9,82.6,81,83,80.1,83"/>
		<path class="st2" d="M103.9,83c-0.9,0-1.7-0.3-2.4-1L82.4,64c-1.4-1.3-1.4-3.6-0.1-5s3.5-1.5,4.9-0.1l19.1,18
			c1.4,1.3,1.5,3.5,0.1,4.9C105.8,82.6,104.8,83,103.9,83"/>
		<path class="st4" d="M41.8,83c-0.9,0-1.7-0.3-2.4-1L20.3,64c-0.7-0.7-1.1-1.6-1.1-2.5c0-1,0.4-1.9,1.1-2.5l19.2-18.1
			c1.3-1.3,3.5-1.3,4.8,0L63.5,59c0.7,0.7,1.1,1.6,1.1,2.5c0,1-0.4,1.9-1.1,2.5L44.2,82.1C43.5,82.7,42.7,83,41.8,83 M27.7,61.4
			l14.1,13.3l14.1-13.3L41.8,48.2L27.7,61.4z"/>
		<g class="st5">
			<g>
				<polygon class="st6" points="88.9,39.8 95.3,36.2 94,35 				"/>
				<polygon class="st6" points="84,65.4 92.2,63.6 90.9,62.4 				"/>
				<polygon class="st6" points="55.9,61.4 59.7,67.4 60.9,66.3 				"/>
				<polygon class="st6" points="17.6,61.4 21.4,67.4 22.7,66.2 				"/>
			</g>
		</g>
	</g>
</g>
</svg>
